<?xml version="1.0" encoding="utf-8"?>
<!-- Generator: Adobe Illustrator 19.1.0, SVG Export Plug-In . SVG Version: 6.00 Build 0)  -->
<svg version="1.1" id="Layer_1" xmlns="http://www.w3.org/2000/svg" xmlns:xlink="http://www.w3.org/1999/xlink" x="0px" y="0px"
	 viewBox="0 0 353.5 240" style="enable-background:new 0 0 353.5 240;" xml:space="preserve">
<style type="text/css">
	.st0{fill:#0C0F28;}
	.st1{fill:#B8D9F4;}
	.st2{fill:#85A9D3;}
	.st3{fill:#FFFFFF;}
	.st4{opacity:5.000000e-02;fill:#FFFFFF;}
	.st5{opacity:3.000000e-02;fill:#FFFFFF;}
</style>
<rect x="-1483.2" y="720" class="st0" width="811" height="613"/>
<path class="st1" d="M316.3,70h-23.5h-40.3c-6.5,0-11.7-5-11.7-11.5c0-4.7,2.8-8.7,6.9-10.5h43.9c0.4,0,0.8,0,1.2,0
	c0.1,0,0.3,0,0.4,0c1.8-0.1,3.6-0.4,5.2-0.9c9.9-2.9,17.2-12.1,17.2-23c0-13.3-10.8-24-24-24H132c-13.3,0-24,10.7-24,24
	c0,10.9,7.2,20.1,17.2,23c2.2,0.6,4.5,1,6.9,1h0.8h24.1c4.1,1.8,6.9,5.8,6.9,10.5c0,6.5-5.2,11.5-11.7,11.5h-19.3H69.3
	c-20.5,0-37.2,16.5-37.2,37c0,20.5,16.7,37,37.2,37h-3.7c13.3,0,24,10.7,24,24c0,13.3-10.8,24-24,24H24c-13.3,0-24,10.7-24,24
	c0,13.3,10.8,24,24,24h159.5c13.3,0,24-10.7,24-24c0-13.3-10.8-24-24-24H170c-13.3,0-24-10.7-24-24c0-13.3,10.8-24,24-24h146.2
	c20.5,0,37.2-16.5,37.2-37C353.5,86.5,336.8,70,316.3,70z"/>
<path class="st2" d="M-609.7-239h-247c-20.5,0-37.2,16.5-37.2,37s16.7,37,37.2,37h247c20.5,0,37.2-16.5,37.2-37
	S-589.2-239-609.7-239z"/>
<path class="st2" d="M-634.4-309H-794c-13.3,0-24,10.7-24,24s10.8,24,24,24h159.5c13.3,0,24-10.7,24-24S-621.2-309-634.4-309z"/>
<path class="st2" d="M-742.4-165H-902c-13.3,0-24,10.7-24,24s10.8,24,24,24h159.5c13.3,0,24-10.7,24-24S-729.2-165-742.4-165z"/>
<path class="st3" d="M-596.4-165H-756c-13.3,0-24,10.7-24,24s10.8,24,24,24h159.5c13.3,0,24-10.7,24-24S-583.2-165-596.4-165z"/>
<path class="st3" d="M-860.4-165H-1020c-13.3,0-24,10.7-24,24s10.8,24,24,24h159.5c13.3,0,24-10.7,24-24S-847.2-165-860.4-165z"/>
<path class="st2" d="M-742.4-117H-902c-13.3,0-24,10.7-24,24s10.8,24,24,24h159.5c13.3,0,24-10.7,24-24S-729.2-117-742.4-117z"/>
<rect x="-793.4" y="-264.5" class="st2" width="160.6" height="36.4"/>
<path class="st3" d="M-773.9-262h-77.6c-6.5,0-11.7,5-11.7,11.5c0,6.5,5.2,11.5,11.7,11.5h77.6c6.5,0,11.7-5,11.7-11.5
	C-762.2-257-767.5-262-773.9-262z"/>
<path class="st3" d="M-595.9-262h-77.6c-6.5,0-11.7,5-11.7,11.5c0,6.5,5.2,11.5,11.7,11.5h77.6c6.5,0,11.7-5,11.7-11.5
	C-584.2-257-589.5-262-595.9-262z"/>
<circle class="st4" cx="-1077.2" cy="1027" r="271"/>
<path class="st5" d="M-1077.2,1273c-65.7,0-127.5-25.6-173.9-72.1c-46.5-46.5-72.1-108.2-72.1-173.9s25.6-127.5,72.1-173.9
	s108.2-72.1,173.9-72.1s127.5,25.6,173.9,72.1c46.5,46.5,72.1,108.2,72.1,173.9s-25.6,127.5-72.1,173.9
	C-949.7,1247.4-1011.5,1273-1077.2,1273z"/>
</svg>
