<?xml version="1.0" encoding="utf-8"?>
<!-- Generator: Adobe Illustrator 19.1.0, SVG Export Plug-In . SVG Version: 6.00 Build 0)  -->
<svg version="1.1" id="Layer_1" xmlns="http://www.w3.org/2000/svg" xmlns:xlink="http://www.w3.org/1999/xlink" x="0px" y="0px"
	 viewBox="0 0 138 169" style="enable-background:new 0 0 138 169;" xml:space="preserve">
<style type="text/css">
	.st0{fill:#0C0F28;}
	.st1{fill:#85A9D3;}
	.st2{fill:#FFFFFF;}
	.st3{opacity:5.000000e-02;fill:#FFFFFF;}
	.st4{opacity:3.000000e-02;fill:#FFFFFF;}
	.st5{fill:#428C60;}
</style>
<rect x="-1642" y="423" class="st0" width="811" height="613"/>
<path class="st1" d="M-768.5-536h-247c-20.5,0-37.2,16.5-37.2,37s16.7,37,37.2,37h247c20.5,0,37.2-16.5,37.2-37S-748-536-768.5-536z
	"/>
<path class="st1" d="M-793.2-606h-159.5c-13.3,0-24,10.7-24,24c0,13.3,10.8,24,24,24h159.5c13.3,0,24-10.7,24-24
	C-769.2-595.2-780-606-793.2-606z"/>
<path class="st1" d="M-901.2-462h-159.5c-13.3,0-24,10.7-24,24c0,13.3,10.8,24,24,24h159.5c13.3,0,24-10.7,24-24
	C-877.2-451.2-888-462-901.2-462z"/>
<path class="st2" d="M-755.2-462h-159.5c-13.3,0-24,10.7-24,24c0,13.3,10.8,24,24,24h159.5c13.3,0,24-10.7,24-24
	C-731.2-451.2-742-462-755.2-462z"/>
<path class="st2" d="M-1019.2-462h-159.5c-13.3,0-24,10.7-24,24c0,13.3,10.8,24,24,24h159.5c13.3,0,24-10.7,24-24
	C-995.2-451.2-1006-462-1019.2-462z"/>
<path class="st1" d="M-901.2-414h-159.5c-13.3,0-24,10.7-24,24c0,13.3,10.8,24,24,24h159.5c13.3,0,24-10.7,24-24
	C-877.2-403.2-888-414-901.2-414z"/>
<rect x="-952.3" y="-561.5" class="st1" width="160.6" height="36.4"/>
<path class="st2" d="M-932.7-559h-77.6c-6.5,0-11.7,5-11.7,11.5c0,6.5,5.2,11.5,11.7,11.5h77.6c6.5,0,11.7-5,11.7-11.5
	C-921-553.9-926.3-559-932.7-559z"/>
<path class="st2" d="M-754.7-559h-77.6c-6.5,0-11.7,5-11.7,11.5c0,6.5,5.2,11.5,11.7,11.5h77.6c6.5,0,11.7-5,11.7-11.5
	C-743-553.9-748.3-559-754.7-559z"/>
<circle class="st3" cx="-1236" cy="730" r="271"/>
<path class="st4" d="M-1236,976c-65.7,0-127.5-25.6-173.9-72.1c-46.5-46.5-72.1-108.2-72.1-173.9s25.6-127.5,72.1-173.9
	S-1301.7,484-1236,484s127.5,25.6,173.9,72.1c46.5,46.5,72.1,108.2,72.1,173.9s-25.6,127.5-72.1,173.9
	C-1108.5,950.4-1170.3,976-1236,976z"/>
<path class="st5" d="M137.8,166.8l-27.4-47.4c-0.6-1,0.1-2.3,1.3-2.3h10.3c1.2,0,1.9-1.3,1.3-2.3l-18.1-31.4c-0.6-1,0.1-2.3,1.3-2.3
	h8.3c1.2,0,1.9-1.3,1.3-2.3L70.9,0.8c-0.6-1-2-1-2.6,0L23.1,79c-0.6,1,0.1,2.3,1.3,2.3h7.9c1.2,0,1.9,1.3,1.3,2.3l-18.1,31.4
	c-0.6,1,0.1,2.3,1.3,2.3h9.5c1.2,0,1.9,1.3,1.3,2.3L0.2,166.8c-0.6,1,0.1,2.3,1.3,2.3h134.9C137.6,169,138.3,167.8,137.8,166.8z"/>
</svg>
