<?xml version="1.0" encoding="utf-8"?>
<!-- Generator: Adobe Illustrator 19.1.0, SVG Export Plug-In . SVG Version: 6.00 Build 0)  -->
<svg version="1.1" id="Layer_1" xmlns="http://www.w3.org/2000/svg" xmlns:xlink="http://www.w3.org/1999/xlink" x="0px" y="0px"
	 viewBox="0 0 180.7 220.4" style="enable-background:new 0 0 180.7 220.4;" xml:space="preserve">
<style type="text/css">
	.st0{fill:#0C0F28;}
	.st1{fill:#85A9D3;}
	.st2{fill:#FFFFFF;}
	.st3{opacity:5.000000e-02;fill:#FFFFFF;}
	.st4{opacity:3.000000e-02;fill:#FFFFFF;}
	.st5{fill:#59B57E;}
</style>
<rect x="-1616.7" y="609.9" class="st0" width="811" height="613"/>
<path class="st1" d="M-743.2-349.1h-247c-20.5,0-37.2,16.5-37.2,37s16.7,37,37.2,37h247c20.5,0,37.2-16.5,37.2-37
	S-722.7-349.1-743.2-349.1z"/>
<path class="st1" d="M-767.9-419.1h-159.5c-13.3,0-24,10.7-24,24s10.8,24,24,24h159.5c13.3,0,24-10.7,24-24
	S-754.6-419.1-767.9-419.1z"/>
<path class="st1" d="M-875.9-275.1h-159.5c-13.3,0-24,10.7-24,24s10.8,24,24,24h159.5c13.3,0,24-10.7,24-24
	S-862.6-275.1-875.9-275.1z"/>
<path class="st2" d="M-729.9-275.1h-159.5c-13.3,0-24,10.7-24,24s10.8,24,24,24h159.5c13.3,0,24-10.7,24-24
	S-716.6-275.1-729.9-275.1z"/>
<path class="st2" d="M-993.9-275.1h-159.5c-13.3,0-24,10.7-24,24s10.8,24,24,24h159.5c13.3,0,24-10.7,24-24
	S-980.6-275.1-993.9-275.1z"/>
<path class="st1" d="M-875.9-227.1h-159.5c-13.3,0-24,10.7-24,24c0,13.3,10.8,24,24,24h159.5c13.3,0,24-10.7,24-24
	C-851.9-216.4-862.6-227.1-875.9-227.1z"/>
<rect x="-926.9" y="-374.7" class="st1" width="160.6" height="36.4"/>
<path class="st2" d="M-907.4-372.1H-985c-6.5,0-11.7,5-11.7,11.5c0,6.5,5.2,11.5,11.7,11.5h77.6c6.5,0,11.7-5,11.7-11.5
	C-895.7-367.1-900.9-372.1-907.4-372.1z"/>
<path class="st2" d="M-729.4-372.1H-807c-6.5,0-11.7,5-11.7,11.5c0,6.5,5.2,11.5,11.7,11.5h77.6c6.5,0,11.7-5,11.7-11.5
	C-717.7-367.1-722.9-372.1-729.4-372.1z"/>
<circle class="st3" cx="-1210.7" cy="916.9" r="271"/>
<path class="st4" d="M-1210.7,1162.9c-65.7,0-127.5-25.6-173.9-72.1c-46.5-46.5-72.1-108.2-72.1-173.9s25.6-127.5,72.1-173.9
	s108.2-72.1,173.9-72.1s127.5,25.6,173.9,72.1c46.5,46.5,72.1,108.2,72.1,173.9s-25.6,127.5-72.1,173.9
	C-1083.2,1137.3-1145,1162.9-1210.7,1162.9z"/>
<path class="st5" d="M180.4,217.4l-35.9-62.1c-0.8-1.3,0.2-2.9,1.7-2.9h13.4c1.5,0,2.5-1.6,1.7-2.9l-23.7-41.1
	c-0.8-1.3,0.2-2.9,1.7-2.9h10.9c1.5,0,2.5-1.6,1.7-2.9L92.8,0c-0.8-1.3-2.6-1.3-3.4,0L30.3,102.4c-0.8,1.3,0.2,2.9,1.7,2.9h10.3
	c1.5,0,2.5,1.6,1.7,2.9l-23.7,41.1c-0.8,1.3,0.2,2.9,1.7,2.9h12.5c1.5,0,2.5,1.6,1.7,2.9L0.3,217.4c-0.8,1.3,0.2,2.9,1.7,2.9h176.7
	C180.2,220.4,181.2,218.7,180.4,217.4z"/>
</svg>
