<?xml version="1.0" encoding="utf-8"?>
<!-- Generator: Adobe Illustrator 19.1.0, SVG Export Plug-In . SVG Version: 6.00 Build 0)  -->
<svg version="1.1" id="Layer_1" xmlns="http://www.w3.org/2000/svg" xmlns:xlink="http://www.w3.org/1999/xlink" x="0px" y="0px"
	 viewBox="0 0 378.5 170" style="enable-background:new 0 0 378.5 170;" xml:space="preserve">
<style type="text/css">
	.st0{fill:#98C2EA;}
	.st1{fill:#0C0F28;}
	.st2{fill:#B8D9F4;}
	.st3{fill:#85A9D3;}
	.st4{fill:#FFFFFF;}
	.st5{opacity:5.000000e-02;fill:#FFFFFF;}
	.st6{opacity:3.000000e-02;fill:#FFFFFF;}
	.st7{fill:#59B57E;}
	.st8{fill:#428C60;}
</style>
<rect x="683.6" y="-282" class="st0" width="834.1" height="621.9"/>
<rect x="-1483.2" y="650" class="st1" width="811" height="613"/>
<path class="st2" d="M341.3,96H169c-13.3,0-24-10.7-24-24c0-13.3,10.8-24,24-24h14.5c13.3,0,24-10.7,24-24c0-13.3-10.8-24-24-24H24
	C10.8,0,0,10.7,0,24c0,13.3,10.8,24,24,24h63.5c13.3,0,24,10.7,24,24c0,13.3-10.8,24-24,24h6.7c-20.5,0-37.2,16.5-37.2,37
	c0,20.5,16.7,37,37.2,37h247c20.5,0,37.2-16.5,37.2-37C378.5,112.5,361.8,96,341.3,96z"/>
<path class="st2" d="M1104.3-151h-23.5h-40.3c-6.5,0-11.7-5-11.7-11.5c0-4.7,2.8-8.7,6.9-10.5h43.9c0.4,0,0.8,0,1.2,0
	c0.1,0,0.3,0,0.4,0c1.8-0.1,3.6-0.4,5.2-0.9c9.9-2.9,17.2-12.1,17.2-23c0-13.3-10.8-24-24-24H920c-13.3,0-24,10.7-24,24
	c0,10.9,7.2,20.1,17.2,23c2.2,0.6,4.5,1,6.9,1h0.8h24.1c4.1,1.8,6.9,5.8,6.9,10.5c0,6.5-5.2,11.5-11.7,11.5h-19.3h-63.5
	c-20.5,0-37.2,16.5-37.2,37c0,20.5,16.7,37,37.2,37h-3.7c13.3,0,24,10.7,24,24c0,13.3-10.8,24-24,24H812c-13.3,0-24,10.7-24,24
	c0,13.3,10.8,24,24,24h159.5c13.3,0,24-10.7,24-24c0-13.3-10.8-24-24-24H958c-13.3,0-24-10.7-24-24c0-13.3,10.8-24,24-24h146.2
	c20.5,0,37.2-16.5,37.2-37C1141.5-134.5,1124.8-151,1104.3-151z"/>
<path class="st3" d="M-609.7-309h-247c-20.5,0-37.2,16.5-37.2,37s16.7,37,37.2,37h247c20.5,0,37.2-16.5,37.2-37
	S-589.2-309-609.7-309z"/>
<path class="st3" d="M-634.4-379H-794c-13.3,0-24,10.7-24,24s10.8,24,24,24h159.5c13.3,0,24-10.7,24-24S-621.2-379-634.4-379z"/>
<path class="st3" d="M-742.4-235H-902c-13.3,0-24,10.7-24,24s10.8,24,24,24h159.5c13.3,0,24-10.7,24-24S-729.2-235-742.4-235z"/>
<path class="st4" d="M-596.4-235H-756c-13.3,0-24,10.7-24,24s10.8,24,24,24h159.5c13.3,0,24-10.7,24-24S-583.2-235-596.4-235z"/>
<path class="st4" d="M-860.4-235H-1020c-13.3,0-24,10.7-24,24s10.8,24,24,24h159.5c13.3,0,24-10.7,24-24S-847.2-235-860.4-235z"/>
<path class="st3" d="M-742.4-187H-902c-13.3,0-24,10.7-24,24s10.8,24,24,24h159.5c13.3,0,24-10.7,24-24S-729.2-187-742.4-187z"/>
<rect x="-793.4" y="-334.5" class="st3" width="160.6" height="36.4"/>
<path class="st4" d="M-773.9-332h-77.6c-6.5,0-11.7,5-11.7,11.5s5.2,11.5,11.7,11.5h77.6c6.5,0,11.7-5,11.7-11.5
	S-767.5-332-773.9-332z"/>
<path class="st4" d="M-595.9-332h-77.6c-6.5,0-11.7,5-11.7,11.5s5.2,11.5,11.7,11.5h77.6c6.5,0,11.7-5,11.7-11.5
	S-589.5-332-595.9-332z"/>
<circle class="st5" cx="-1077.2" cy="957" r="271"/>
<path class="st6" d="M-1077.2,1203c-65.7,0-127.5-25.6-173.9-72.1c-46.5-46.5-72.1-108.2-72.1-173.9s25.6-127.5,72.1-173.9
	s108.2-72.1,173.9-72.1s127.5,25.6,173.9,72.1c46.5,46.5,72.1,108.2,72.1,173.9s-25.6,127.5-72.1,173.9
	C-949.7,1177.4-1011.5,1203-1077.2,1203z"/>
<path class="st7" d="M648.9-244.4L613-306.5c-0.8-1.3,0.2-2.9,1.7-2.9h13.4c1.5,0,2.5-1.6,1.7-2.9l-23.7-41.1
	c-0.8-1.3,0.2-2.9,1.7-2.9h10.9c1.5,0,2.5-1.6,1.7-2.9l-59.1-102.4c-0.8-1.3-2.6-1.3-3.4,0l-59.1,102.4c-0.8,1.3,0.2,2.9,1.7,2.9
	h10.3c1.5,0,2.5,1.6,1.7,2.9l-23.7,41.1c-0.8,1.3,0.2,2.9,1.7,2.9h12.5c1.5,0,2.5,1.6,1.7,2.9l-35.9,62.1c-0.8,1.3,0.2,2.9,1.7,2.9
	h176.7C648.7-241.5,649.6-243.1,648.9-244.4z"/>
<path class="st8" d="M434.5-319.3l-27.4-47.4c-0.6-1,0.1-2.3,1.3-2.3h10.3c1.2,0,1.9-1.3,1.3-2.3l-18.1-31.4c-0.6-1,0.1-2.3,1.3-2.3
	h8.3c1.2,0,1.9-1.3,1.3-2.3l-45.2-78.2c-0.6-1-2-1-2.6,0l-45.2,78.2c-0.6,1,0.1,2.3,1.3,2.3h7.9c1.2,0,1.9,1.3,1.3,2.3l-18.1,31.4
	c-0.6,1,0.1,2.3,1.3,2.3h9.5c1.2,0,1.9,1.3,1.3,2.3L297-319.3c-0.6,1,0.1,2.3,1.3,2.3h134.9C434.4-317,435.1-318.3,434.5-319.3z"/>
</svg>
